<?xml version="1.0" encoding="UTF-8" standalone="no"?>
<!-- Created with Inkscape (http://www.inkscape.org/) -->

<svg
   width="329.36984mm"
   height="66.145836mm"
   viewBox="0 0 329.36985 66.145836"
   version="1.1"
   id="svg1"
   xml:space="preserve"
   inkscape:version="1.3.2 (091e20e, 2023-11-25, custom)"
   sodipodi:docname="PONOS_Logo.svg"
   xmlns:inkscape="http://www.inkscape.org/namespaces/inkscape"
   xmlns:sodipodi="http://sodipodi.sourceforge.net/DTD/sodipodi-0.dtd"
   xmlns="http://www.w3.org/2000/svg"
   xmlns:svg="http://www.w3.org/2000/svg"><sodipodi:namedview
     id="namedview1"
     pagecolor="#ffffff"
     bordercolor="#000000"
     borderopacity="0.25"
     inkscape:showpageshadow="2"
     inkscape:pageopacity="0.0"
     inkscape:pagecheckerboard="0"
     inkscape:deskcolor="#d1d1d1"
     inkscape:document-units="mm"
     showgrid="false"
     showguides="false"
     inkscape:zoom="0.82016649"
     inkscape:cx="393.82248"
     inkscape:cy="287.13682"
     inkscape:window-width="1600"
     inkscape:window-height="829"
     inkscape:window-x="-8"
     inkscape:window-y="-8"
     inkscape:window-maximized="1"
     inkscape:current-layer="layer1" /><defs
     id="defs1" /><g
     inkscape:label="圖層 1"
     inkscape:groupmode="layer"
     id="layer1"
     transform="translate(61.651447,-115.96328)"><path
       d="m -34.566373,115.96328 h -0.02018 v 0 h -27.064894 v 66.14583 h 22.217142 v -12.32023 a 26.865348,26.865348 0 0 0 4.86793,0.45029 c 14.876199,0 26.9356003,-12.14983 26.9356003,-27.13776 0,-14.98793 -12.0594013,-27.13813 -26.9356003,-27.13813 z"
       id="path1"
       style="opacity:1;stroke-width:0.37368;fill:#ee7325;fill-opacity:1" /><path
       d="m 35.21307,115.96328 q -13.72266,0 -23.090954,9.60522 -9.3682931,9.60522 -9.3679381,23.46806 0,13.86354 9.3679381,23.46733 9.367937,9.6038 23.090954,9.60522 13.72266,0 23.090599,-9.60522 9.367938,-9.60523 9.368294,-23.46733 0,-13.86176 -9.368294,-23.46699 -9.368294,-9.60522 -23.090599,-9.60629 z"
       id="path1-9"
       style="opacity:1;stroke-width:0.355748;fill:#ee7325;fill-opacity:1" /><path
       d="m 180.82536,115.96328 q -13.72273,0 -23.09108,9.60522 -9.36836,9.60522 -9.368,23.46806 0,13.86354 9.368,23.46733 9.36799,9.6038 23.09108,9.60522 13.72274,0 23.09073,-9.60522 9.368,-9.60523 9.36836,-23.46733 0,-13.86176 -9.36836,-23.46699 -9.36834,-9.60522 -23.09073,-9.60629 z"
       id="path2"
       style="opacity:1;stroke-width:0.355748;fill:#ee7325;fill-opacity:1" /><path
       d="M 117.41797,136.25645 78.056916,116.19534 v 65.91377 h 20.564476 v -20.29356 h 4.073138 v 20.29356 h 35.28679 v -66.14583 h -20.56335 z"
       id="path1-1"
       style="opacity:1;stroke-width:0.373682;fill:#ee7325;fill-opacity:1" /><path
       d="m 262.75796,145.39855 a 23.721521,23.721521 0 0 0 -5.6619,-5.32125 l 10.55772,-8.31718 a 23.861197,23.861197 0 0 0 -3.77698,-6.8552 q -5.84361,-7.52758 -14.97249,-8.7355 -9.12886,-1.20792 -16.5866,4.66242 -7.4506,5.86999 -8.49106,15.09221 -1.04044,9.22223 4.80317,16.7498 a 23.721521,23.721521 0 0 0 5.66189,5.32127 l -10.5577,8.31716 a 23.933887,23.933887 0 0 0 3.77341,6.85521 q 5.84183,7.52758 14.97603,8.73549 9.13423,1.20792 16.58662,-4.66242 7.4506,-5.86997 8.49107,-15.09221 1.04044,-9.22222 -4.80318,-16.7498 z"
       id="path1-2"
       style="opacity:1;stroke-width:0.356317;fill:#ee7325;fill-opacity:1" /></g></svg>
